<svg width="46" height="46" viewBox="0 0 46 46" fill="none" xmlns="http://www.w3.org/2000/svg">
<path d="M41 19.2509C41 32.6145 23.75 44.0691 23.75 44.0691C23.75 44.0691 6.5 32.6145 6.5 19.2509C6.5 14.694 8.31741 10.3237 11.5524 7.10153C14.7874 3.87931 19.175 2.06909 23.75 2.06909C28.325 2.06909 32.7126 3.87931 35.9476 7.10153C39.1826 10.3237 41 14.694 41 19.2509Z" stroke="white" stroke-width="1.81818" stroke-linecap="round" stroke-linejoin="round"/>
<path d="M23 26.0691C26.3137 26.0691 29 23.3828 29 20.0691C29 16.7554 26.3137 14.0691 23 14.0691C19.6863 14.0691 17 16.7554 17 20.0691C17 23.3828 19.6863 26.0691 23 26.0691Z" stroke="white" stroke-width="1.81818" stroke-linecap="round" stroke-linejoin="round"/>
</svg>
