<svg width="21" height="24" viewBox="0 0 21 24" fill="none" xmlns="http://www.w3.org/2000/svg">
<path fill-rule="evenodd" clip-rule="evenodd" d="M14.5713 13.7138H6C4.4087 13.7138 2.88258 14.346 1.75736 15.4712C0.632145 16.5964 0 18.1225 0 19.7138V21.4276C-6.13331e-08 22.1097 0.27087 22.7638 0.753046 23.2462C1.23522 23.7286 1.88922 23.9997 2.57127 24H18C18.6819 24 19.336 23.7291 19.8182 23.2469C20.3004 22.7647 20.5713 22.1107 20.5713 21.4287V19.7138C20.5713 18.1225 19.9391 16.5964 18.8139 15.4712C17.6887 14.346 16.1626 13.7138 14.5713 13.7138ZM6 15.4287H14.5713C15.708 15.4287 16.7982 15.8803 17.6021 16.6841C18.4059 17.4879 18.8574 18.5781 18.8574 19.7149V21.4287C18.8576 21.5414 18.8355 21.6529 18.7925 21.757C18.7494 21.8611 18.6863 21.9557 18.6066 22.0354C18.527 22.115 18.4324 22.1782 18.3283 22.2212C18.2242 22.2642 18.1126 22.2863 18 22.2862H2.57127C2.34386 22.2862 2.12576 22.1958 1.96495 22.035C1.80415 21.8742 1.71382 21.6561 1.71382 21.4287V19.7138C1.71411 18.5772 2.16582 17.4873 2.9696 16.6837C3.77339 15.8802 4.86342 15.4287 6 15.4287ZM10.2862 0C9.09949 0 7.93946 0.351895 6.95276 1.01118C5.96607 1.67047 5.19702 2.60754 4.7429 3.7039C4.28877 4.80026 4.16996 6.00666 4.40147 7.17054C4.63298 8.33443 5.20443 9.40353 6.04355 10.2426C6.88266 11.0818 7.95175 11.6532 9.11564 11.8847C10.2795 12.1162 11.4859 11.9974 12.5823 11.5433C13.6786 11.0892 14.6157 10.3201 15.275 9.33342C15.9343 8.34673 16.2862 7.18669 16.2862 6C16.2862 4.4087 15.654 2.88258 14.5288 1.75736C13.4036 0.632141 11.8775 0 10.2862 0ZM10.2862 1.71382C11.1339 1.71382 11.9626 1.9652 12.6675 2.43617C13.3723 2.90714 13.9217 3.57655 14.2461 4.35975C14.5705 5.14295 14.6554 6.00476 14.49 6.83619C14.3246 7.66763 13.9164 8.43135 13.317 9.03079C12.7175 9.63022 11.9538 10.0384 11.1224 10.2038C10.2909 10.3692 9.42912 10.2843 8.64592 9.95991C7.86273 9.6355 7.19332 9.08613 6.72235 8.38127C6.25138 7.67642 6 6.84773 6 6C6.00029 4.86332 6.45197 3.77328 7.25572 2.96953C8.05947 2.16578 9.1495 1.71411 10.2862 1.71382Z" fill="#005CFF"/>
</svg>
