<svg width="28" height="20" viewBox="0 0 28 20" fill="none" xmlns="http://www.w3.org/2000/svg">
<path d="M2.83838 19.2504C1.46875 19.2504 0.355469 18.1674 0.355469 16.835V3.33321C0.355469 2.00169 1.46875 0.917969 2.83838 0.917969H24.6519C26.0208 0.917969 27.1348 2.00169 27.1348 3.33321V16.835C27.1348 18.1674 26.0208 19.2504 24.6519 19.2504H2.83838ZM1.93384 3.64834V16.5199C1.93384 17.2789 2.56763 17.8951 3.3479 17.8951H24.1423C24.9216 17.8951 25.5562 17.2789 25.5562 16.5199V3.64834C25.5562 2.89032 24.9216 2.27312 24.1423 2.27312H3.3479C2.56763 2.27312 1.93384 2.89032 1.93384 3.64834ZM23.2864 12.7363L21.9238 11.0116L20.5603 12.7363H16.1973V7.43204H20.6973L21.7878 9.02349L23.1514 7.43204H24.6509L22.6069 10.0837L24.6509 12.7363H23.2864ZM17.2908 11.6753H19.8799L21.1077 10.0855L20.0168 8.62607H17.2908V9.55318H19.7441V10.6142H17.2908V11.6753ZM13.6086 12.7363V8.89133L12.1084 12.7363H11.0176L9.51733 8.75835V12.7363H7.20068L6.79297 11.543H4.47461L4.06519 12.7363H2.83765L4.88232 7.43204H6.38257L8.2915 12.471V7.43204H10.1995L11.563 11.0116L12.9265 7.43204H14.6995V12.7363H13.6086ZM4.88232 10.349H6.24683L5.56445 8.49309L4.88232 10.349Z" fill="#303030"/>
</svg>
