<svg width="37" height="24" viewBox="0 0 37 24" fill="none" xmlns="http://www.w3.org/2000/svg">
<path d="M34.1327 24H2.86635C1.47975 23.9981 0.356415 22.9047 0.355469 21.556L0.355484 2.44235C0.357376 1.09423 1.48042 0.00184044 2.86635 0L34.1327 2.96845e-05C35.5186 0.00184044 36.6416 1.09426 36.6436 2.44235L36.6436 21.556C36.6426 22.9047 35.5193 23.9982 34.1327 24ZM2.86636 1.39832C2.27454 1.39832 1.79475 1.86499 1.79475 2.44066L1.79474 21.556C1.79475 22.1317 2.27452 22.5983 2.86636 22.5983H34.1327C34.7246 22.5983 35.2043 22.1317 35.2043 21.556V2.44235C35.2043 1.86668 34.7246 1.39998 34.1327 1.39998L2.86636 1.39832Z" fill="#303030"/>
<rect x="30.6064" y="3.62793" width="2.308" height="16.8315" fill="#303030"/>
<rect x="27.1533" y="3.62793" width="2.308" height="14.5865" fill="#303030"/>
<rect x="9.84961" y="3.62793" width="2.308" height="14.5865" fill="#303030"/>
<rect x="21.3721" y="3.62793" width="2.308" height="14.5865" fill="#303030"/>
<rect x="15.6104" y="3.62793" width="3.37963" height="14.5865" fill="#303030"/>
<rect x="7.57812" y="3.62793" width="1.10805" height="14.5865" fill="#303030"/>
<rect x="13.3389" y="3.62793" width="1.10805" height="14.5865" fill="#303030"/>
<rect x="24.8457" y="3.62793" width="1.10805" height="14.5865" fill="#303030"/>
<rect x="4.06836" y="3.62793" width="2.308" height="16.8315" fill="#303030"/>
</svg>
