<svg width="33" height="13" viewBox="0 0 33 13" fill="none" xmlns="http://www.w3.org/2000/svg">
<path d="M5.40683 3.50373C5.77078 3.38546 6.15988 3.32191 6.56503 3.32191C8.33173 3.32191 9.80673 4.5425 10.1446 6.16491L12.649 5.668C12.0744 2.91094 9.56921 0.835938 6.56503 0.835938C5.87665 0.835938 5.21536 0.945065 4.59668 1.14613L5.40683 3.50373Z" fill="#303030"/>
<path d="M2.45191 11.3985L4.14547 9.53605C3.38948 8.8846 2.91251 7.93383 2.91251 6.87456C2.91251 5.8153 3.38883 4.86579 4.14434 4.21513L2.45045 2.35254C1.16658 3.4588 0.356445 5.0749 0.356445 6.87456C0.356445 8.67423 1.16691 10.2921 2.45191 11.3985Z" fill="#303030"/>
<path d="M10.1443 7.58691C9.80511 9.20852 8.33154 10.4268 6.56537 10.4268C6.16006 10.4268 5.76981 10.3632 5.40601 10.2443L4.59473 12.603C5.21356 12.8039 5.87616 12.9127 6.56537 12.9127C9.56662 12.9127 12.0713 10.8412 12.6483 8.0865L10.1443 7.58691Z" fill="#303030"/>
<path d="M14.8393 9.61445C14.7573 9.48513 14.6459 9.27839 14.5786 9.12622C14.182 8.23064 14.163 7.30384 14.498 6.4141C14.8662 5.43843 15.5696 4.6914 16.4785 4.31103C17.6212 3.83272 18.885 3.92703 19.9801 4.55908C20.6758 4.94734 21.169 5.54676 21.5435 6.39439C21.5911 6.50288 21.6331 6.6188 21.674 6.7172L14.8393 9.61445ZM17.1215 5.74878C16.3101 6.08798 15.8918 6.82837 15.9777 7.69651L19.4151 6.25751C18.824 5.58192 18.0549 5.358 17.1215 5.74878ZM19.8439 8.87973C19.8431 8.88035 19.8427 8.88099 19.842 8.88162L19.7708 8.83495C19.5657 9.15871 19.2457 9.42095 18.8418 9.59127C18.0735 9.91628 17.3615 9.83271 16.8501 9.39651L16.8031 9.46606C16.8031 9.46606 16.8024 9.46463 16.8016 9.46463L15.9296 10.7336C16.146 10.88 16.3785 11.0039 16.6227 11.103C17.586 11.4922 18.5715 11.4742 19.5425 11.0634C20.2449 10.7674 20.7959 10.3159 21.1726 9.74376L19.8439 8.87973Z" fill="#303030"/>
<path d="M24.0632 2.44238V9.49752L25.1908 9.94208L24.55 11.3964L23.3053 10.8922C23.0259 10.7746 22.8357 10.5945 22.6918 10.3912C22.5541 10.184 22.4512 9.89966 22.4512 9.51677V2.44238H24.0632Z" fill="#303030"/>
<path d="M26.9847 7.69999C26.9855 7.09915 27.2581 6.56043 27.6897 6.19427L26.5327 4.93945C25.748 5.61409 25.2539 6.59985 25.2529 7.69824C25.2516 8.79695 25.7451 9.78381 26.5291 10.4602L27.6847 9.2041C27.2553 8.83637 26.9843 8.29941 26.9847 7.69999Z" fill="#303030"/>
<path d="M29.0403 9.7024C28.8125 9.70177 28.5931 9.66517 28.3885 9.59895L27.8359 11.1969C28.2136 11.3202 28.618 11.3874 29.0385 11.3881C30.8704 11.3898 32.4 10.1255 32.7544 8.44476L31.0562 8.10742C30.863 9.01879 30.0338 9.7032 29.0403 9.7024Z" fill="#303030"/>
<path d="M29.0452 4.01563C28.6252 4.01515 28.2208 4.08154 27.8438 4.20377L28.3915 5.80315C28.5967 5.73722 28.816 5.7008 29.0436 5.7008C30.0393 5.70175 30.8693 6.39041 31.0577 7.30397L32.7562 6.96886C32.4069 5.28588 30.8785 4.01689 29.0452 4.01563Z" fill="#303030"/>
</svg>
