<svg width="36" height="16" viewBox="0 0 36 16" fill="none" xmlns="http://www.w3.org/2000/svg">
<path d="M15.1208 15.5676L0.355469 15.5726V15.5387C0.355469 15.52 0.379013 15.3989 0.407806 15.2695C0.436707 15.1402 0.481392 14.9343 0.507355 14.8122C0.533203 14.69 0.577515 14.4826 0.605652 14.3509C0.675018 14.0293 0.743576 13.7077 0.811272 13.3858C0.837868 13.2589 0.88224 13.0513 0.910011 12.9246C0.945328 12.7623 0.980278 12.6 1.01496 12.4376C1.04498 12.2966 1.09058 12.0814 1.11632 11.9592C1.14201 11.837 1.18306 11.6488 1.20724 11.5407C1.23149 11.4327 1.26241 11.2866 1.27591 11.2162C1.2895 11.1456 1.33333 10.9381 1.37337 10.7549C1.40708 10.6014 1.43983 10.4476 1.47156 10.2937C1.48553 10.2232 1.52989 10.0156 1.5702 9.83238C1.61044 9.64926 1.65465 9.44161 1.6684 9.37117C1.68215 9.30075 1.72668 9.09304 1.76723 8.90996C1.80781 8.72666 1.85164 8.52288 1.86454 8.45723C1.87755 8.39144 1.91298 8.22231 1.94342 8.0814C1.97371 7.94041 2.0313 7.67515 2.07117 7.49197C2.11115 7.30873 2.17933 6.98972 2.22272 6.78297C2.26629 6.57625 2.31831 6.33028 2.33832 6.23632C2.39729 5.96001 2.4567 5.6839 2.51669 5.40781C2.54623 5.27157 2.59435 5.04861 2.62362 4.91229C2.65283 4.77609 2.69791 4.56459 2.72375 4.44253C2.7495 4.32035 2.79359 4.11665 2.82158 3.98984C2.84962 3.86293 2.8979 3.63998 2.92877 3.49433C2.95971 3.34873 3.01151 3.12579 3.04389 2.99891C3.07621 2.87206 3.12193 2.71834 3.14558 2.65726C3.16912 2.59616 3.23425 2.46378 3.29023 2.36306L3.39196 2.17992L3.48449 2.06405C3.53527 2.00037 3.62611 1.8998 3.68625 1.84046C3.74641 1.78112 3.84782 1.69189 3.91177 1.64213C3.97557 1.59232 4.06809 1.52511 4.11723 1.49284C4.16635 1.46052 4.26285 1.40392 4.33172 1.36701C4.40049 1.3302 4.49709 1.28201 4.54622 1.25988C4.59534 1.23775 4.69585 1.19726 4.76954 1.16998C4.84317 1.14286 4.98404 1.09722 5.08225 1.06864C5.1805 1.04011 5.36509 0.997054 5.49234 0.973114C5.6195 0.94901 5.82051 0.916891 5.93909 0.901693L6.15454 0.873997L20.9289 0.868684L35.7034 0.863281V0.897211C35.7034 0.915852 35.6798 1.03694 35.6508 1.16634C35.6142 1.33001 35.5784 1.49388 35.5432 1.6578C35.513 1.79877 35.4689 2.00256 35.4452 2.11053C35.4117 2.26425 35.3786 2.41797 35.3457 2.5718C35.3145 2.71751 35.2667 2.94051 35.2394 3.06722C35.212 3.19413 35.1676 3.40172 35.1408 3.52859C35.1141 3.65539 35.0694 3.86293 35.0418 3.98981C35.0094 4.1378 34.9777 4.28584 34.9463 4.43399C34.9215 4.55143 34.8765 4.76278 34.8465 4.90375C34.8164 5.04466 34.7681 5.26762 34.7391 5.39921C34.7101 5.5307 34.6662 5.73444 34.6412 5.85189C34.6162 5.96927 34.5712 6.18073 34.5413 6.32164C34.5113 6.4626 34.4631 6.68552 34.4341 6.81711C34.4052 6.9487 34.3622 7.14855 34.3382 7.26131C34.2722 7.57458 34.2055 7.8878 34.1387 8.20091C34.1143 8.31362 34.0713 8.51362 34.0428 8.645C34.0062 8.81303 33.97 8.98097 33.9341 9.14912C33.9029 9.29481 33.8583 9.50214 33.835 9.61032C33.8116 9.71833 33.768 9.92207 33.7379 10.0629C33.7027 10.2282 33.6673 10.3934 33.6316 10.5585C33.6032 10.69 33.5588 10.8976 33.5326 11.0198C33.5067 11.1419 33.4613 11.3533 33.4321 11.4895C33.4028 11.6257 33.355 11.8486 33.3258 11.9849C33.2966 12.1212 33.253 12.3249 33.2287 12.4377C33.1957 12.5914 33.1629 12.7451 33.1301 12.8988C33.0951 13.0636 33.0589 13.2281 33.0219 13.3925L32.9681 13.6297L32.904 13.7938C32.8688 13.8842 32.8158 14.0042 32.7862 14.0605C32.7567 14.1169 32.6966 14.2164 32.6526 14.2816C32.6086 14.3468 32.5474 14.4302 32.5164 14.4671C32.4854 14.5041 32.3924 14.5994 32.3094 14.6789L32.1589 14.8235L32.0137 14.922C31.934 14.9762 31.848 15.0314 31.8228 15.0445C31.7975 15.0577 31.7014 15.1046 31.6092 15.1488C31.5169 15.1929 31.3868 15.2491 31.3199 15.2735C31.2528 15.2982 31.1202 15.3399 31.0249 15.3663C30.9297 15.3929 30.8277 15.4189 30.7982 15.4243C30.7687 15.4298 30.6664 15.4499 30.5708 15.4693C30.4752 15.4886 30.2822 15.5176 30.1419 15.5335L29.8868 15.5625L15.1208 15.5676ZM9.86745 11.9165H10.2517L10.2625 11.8894C10.2685 11.8745 10.2734 11.8396 10.2734 11.8119C10.2734 11.7839 10.2861 11.6827 10.3016 11.5868C10.317 11.4909 10.3533 11.2702 10.3823 11.0964C10.4112 10.9225 10.4545 10.6613 10.4785 10.5156C10.5012 10.3777 10.523 10.2396 10.5436 10.1013C10.5555 10.0191 10.5698 9.9518 10.5756 9.9518C10.5814 9.9518 10.6063 9.98813 10.6309 10.0326L10.6754 10.1133L10.7746 10.2087L10.8737 10.3041L10.9955 10.3508L11.1175 10.3975L11.2628 10.4155L11.4083 10.4335L11.5927 10.4227L11.7771 10.4119L11.9768 10.3625L12.1766 10.313L12.2837 10.2663C12.3428 10.2406 12.4473 10.1845 12.5161 10.1416L12.6412 10.0638L12.7579 9.95222C12.8221 9.89111 12.9126 9.79272 12.959 9.73396C13.0054 9.67508 13.0434 9.62264 13.0434 9.6174C13.0434 9.61214 13.0663 9.57576 13.094 9.53644C13.1219 9.4972 13.179 9.38809 13.2208 9.29419C13.2626 9.20018 13.3279 9.03109 13.3662 8.91834L13.4354 8.71335L13.4712 8.53579C13.4909 8.43807 13.5162 8.27671 13.5276 8.17697L13.548 7.99582L13.5361 7.84208L13.5243 7.68836L13.4871 7.53454L13.4498 7.38081L13.3894 7.26573L13.329 7.15052L13.2125 7.03241L13.0959 6.91419L12.9579 6.84605L12.82 6.7778L12.668 6.74303L12.5161 6.70831L12.3642 6.69769L12.2124 6.68702L12.0431 6.7056L11.8739 6.72409L11.7358 6.75781L11.5978 6.79144L11.4777 6.84464C11.4117 6.87374 11.3157 6.92335 11.2644 6.9548C11.213 6.98619 11.16 7.02232 11.1466 7.03511C11.1332 7.04781 11.1011 7.0715 11.0753 7.08758L11.0284 7.11695L11.0612 6.96682C11.0793 6.88431 11.0943 6.80727 11.0947 6.79544L11.0954 6.77409H10.4402L10.3828 7.12007C10.3511 7.31043 10.3013 7.6044 10.2719 7.77357C10.2071 8.14667 10.1415 8.51964 10.0752 8.89251C10.046 9.0569 9.99771 9.31838 9.96785 9.47335C9.93804 9.62842 9.89437 9.85518 9.87076 9.97746C9.84722 10.0996 9.80274 10.3301 9.77219 10.4899C9.73607 10.6778 9.69956 10.8658 9.66269 11.0536C9.62786 11.2304 9.59227 11.4068 9.55582 11.5832C9.5266 11.7241 9.4984 11.8568 9.49294 11.878L9.48314 11.9164L9.86745 11.9165ZM11.5216 9.94129L11.3724 9.94989L11.2749 9.93338L11.1774 9.91702L11.0784 9.87377L10.9792 9.83047L10.9101 9.76733L10.8409 9.70423L10.8009 9.61881C10.7789 9.57179 10.7507 9.49194 10.7383 9.44135L10.7155 9.34937L10.7246 9.20215L10.7338 9.05499L10.7798 8.82427C10.8145 8.64803 10.8482 8.4715 10.8808 8.29475C10.9111 8.13032 10.9569 7.88929 10.9826 7.75932L11.0294 7.52287L11.1319 7.44136C11.1883 7.39659 11.2775 7.33647 11.3303 7.30795L11.4262 7.25593L11.5512 7.21893L11.6763 7.18187L11.8372 7.17286L11.9981 7.16379L12.129 7.19055L12.2599 7.21721L12.3525 7.25792L12.4448 7.29863L12.5223 7.37311L12.5999 7.4476L12.6415 7.52648C12.6647 7.56983 12.6969 7.6548 12.7134 7.71512L12.7433 7.82491L12.7342 8.14958L12.725 8.47415L12.6791 8.66602C12.6539 8.77155 12.6059 8.93301 12.5724 9.0248L12.5115 9.19173L12.4368 9.32676C12.3958 9.40105 12.3327 9.50152 12.2963 9.54995C12.26 9.59839 12.2022 9.66117 12.1678 9.68933C12.1262 9.72323 12.0834 9.75597 12.0398 9.78747L11.9742 9.83416L11.8226 9.88339L11.671 9.93271L11.5216 9.94129ZM15.2325 10.4108L15.429 10.4131L15.6256 10.3959C15.7338 10.3865 15.9106 10.3668 16.0188 10.3523C16.1269 10.3378 16.3137 10.3051 16.4339 10.2799L16.6523 10.2339L16.6632 10.1569C16.6692 10.1146 16.6937 9.98861 16.7177 9.87673L16.7614 9.67367L16.7516 9.66445L16.7421 9.6553L16.6752 9.68605C16.6384 9.70303 16.524 9.74353 16.421 9.77601L16.2336 9.83504L16.0367 9.87153L15.8401 9.90797L15.5273 9.90859L15.2145 9.90907L15.1072 9.87631C15.0483 9.85841 14.9616 9.82552 14.9146 9.80324L14.829 9.76283L14.7585 9.70183L14.6879 9.64083L14.6328 9.54879L14.5777 9.45665L14.5432 9.34134L14.5086 9.22584L14.5084 9.0122L14.5081 8.79856L14.5387 8.60803L14.5695 8.41751L14.8383 8.40554L15.1071 8.39351L16.1013 8.39966L17.0953 8.40574L17.1252 8.28399C17.1418 8.21704 17.1671 8.07867 17.1814 7.97649L17.2074 7.79071L17.2081 7.63448L17.2086 7.47821L17.1804 7.36145L17.152 7.24484L17.1052 7.16759C17.0795 7.12511 17.0341 7.06353 17.0044 7.0307C16.9748 6.99794 16.9217 6.95173 16.8866 6.92804C16.8515 6.90435 16.7826 6.86453 16.7335 6.83953L16.644 6.7941L16.488 6.75818L16.3319 6.72231L16.1396 6.70472L15.9471 6.68707L15.7684 6.69816L15.5897 6.70935L15.3752 6.7487L15.1609 6.78812L15.0267 6.83928C14.953 6.86739 14.8405 6.91878 14.7765 6.95345C14.7128 6.98806 14.6242 7.04443 14.58 7.07869C14.5357 7.11294 14.4591 7.17957 14.4098 7.22674C14.3605 7.27389 14.2873 7.35848 14.2475 7.41492C14.2077 7.47134 14.1465 7.57118 14.1117 7.63702C14.0768 7.70283 14.0314 7.79503 14.0107 7.84204C13.9901 7.88898 13.9526 7.98509 13.9274 8.05557C13.9021 8.12606 13.8625 8.26062 13.8393 8.35457C13.812 8.46847 13.7884 8.58305 13.7686 8.69824L13.7401 8.87124L13.7404 9.12541L13.7407 9.37956L13.7679 9.49064C13.7827 9.5517 13.8113 9.64399 13.8313 9.69568C13.8512 9.74727 13.8882 9.82426 13.9134 9.86644C13.9386 9.9087 13.9923 9.9769 14.0328 10.0178C14.0734 10.0587 14.1467 10.1208 14.1959 10.1558C14.245 10.1906 14.3325 10.2398 14.3902 10.2651L14.4953 10.3107L14.6418 10.3446C14.7224 10.3631 14.8439 10.3853 14.9121 10.3937C14.9802 10.402 15.1243 10.4098 15.2325 10.4108ZM15.569 8.00429C15.0743 8.00429 14.6695 8.00097 14.6695 7.99674C14.6695 7.99252 14.6907 7.93302 14.7164 7.86436C14.7421 7.79565 14.7875 7.69347 14.8171 7.63724L14.8709 7.53491L14.9891 7.42257L15.1073 7.31008L15.2235 7.25703C15.2874 7.22776 15.3718 7.19597 15.4111 7.18634C15.4504 7.17666 15.563 7.16385 15.6613 7.15791L15.8401 7.14687L15.9774 7.16373L16.1145 7.18061L16.2142 7.22433L16.3139 7.26795L16.3686 7.32434C16.3987 7.35536 16.4345 7.40101 16.4483 7.42579L16.4733 7.47088L16.4897 7.57097L16.5063 7.67108L16.4874 7.83766L16.4684 8.00423L15.569 8.00429ZM20.9153 10.4109L21.112 10.4131L21.3353 10.3878C21.4581 10.3739 21.6215 10.3509 21.6985 10.3366C21.7915 10.3186 21.8841 10.2977 21.9755 10.2737C22.0509 10.2533 22.1191 10.2314 22.127 10.2248C22.135 10.2182 22.1563 10.1407 22.1744 10.0525C22.1924 9.9643 22.2152 9.84592 22.2249 9.78955C22.2346 9.73316 22.2396 9.68414 22.236 9.68034C22.2325 9.67668 22.2193 9.68143 22.2068 9.69095C22.1942 9.70048 22.1066 9.73571 22.0119 9.76929L21.8398 9.83041L21.5948 9.8757L21.3498 9.92115L21.1414 9.91443L20.933 9.90757L20.8146 9.8683L20.6963 9.82901L20.6049 9.75263L20.5134 9.67612L20.4528 9.5705L20.3921 9.46498L20.3632 9.32365L20.3343 9.18242L20.3345 8.99908L20.3347 8.81579L20.3698 8.59362L20.4049 8.37155L20.442 8.25186C20.4624 8.18612 20.4855 8.10935 20.4934 8.08112C20.5012 8.05292 20.534 7.97219 20.5662 7.90175C20.5984 7.83131 20.656 7.72241 20.694 7.65969L20.7631 7.54579L20.8481 7.46162L20.9331 7.37743L21.0231 7.32418L21.113 7.27088L21.2286 7.23683C21.2922 7.21814 21.4044 7.19383 21.4781 7.18291L21.6122 7.16287L21.8087 7.17234L22.0053 7.18181L22.2377 7.22626L22.47 7.27067L22.5645 7.3043C22.6165 7.32289 22.6612 7.33802 22.6641 7.33802C22.6667 7.33802 22.6793 7.27457 22.6918 7.19701C22.7042 7.11955 22.7263 6.99202 22.741 6.91373C22.7556 6.83527 22.7641 6.76776 22.7598 6.76369C22.7554 6.75953 22.6856 6.74901 22.6047 6.74016C22.5235 6.73138 22.3034 6.7157 22.1152 6.70529L21.7732 6.68654L21.5319 6.70425L21.2906 6.72195L21.1118 6.75777L20.9332 6.79369L20.8181 6.83772C20.7547 6.86193 20.662 6.90566 20.6121 6.93475C20.5641 6.96265 20.517 6.9917 20.4706 7.02194C20.4427 7.04073 20.3585 7.11409 20.2831 7.18493L20.1463 7.31373L20.0697 7.42074C20.0278 7.47962 19.9551 7.60222 19.9082 7.69341L19.8231 7.85916L19.7578 8.03849C19.7219 8.13713 19.6718 8.29855 19.6465 8.39721L19.6005 8.57664L19.5837 8.73895L19.567 8.90127L19.5671 9.1148L19.5673 9.32838L19.5842 9.45254L19.601 9.57684L19.6546 9.70469L19.7081 9.83244L19.77 9.92474L19.8317 10.0172L19.93 10.1096L20.0284 10.202L20.1323 10.2547L20.2364 10.3072L20.373 10.3435C20.448 10.3634 20.5567 10.3863 20.6142 10.3944C20.6717 10.4024 20.807 10.4099 20.9153 10.4109ZM23.8549 10.4047L24.0961 10.3981L24.248 10.3609L24.3999 10.3236L24.4983 10.2793C24.5522 10.2548 24.6407 10.2067 24.6948 10.1721C24.7489 10.1376 24.8325 10.0719 24.8808 10.0264C24.9289 9.98059 25.0005 9.90266 25.0396 9.8531C25.0788 9.80354 25.1132 9.76525 25.1161 9.76789C25.1191 9.7707 25.1101 9.84972 25.096 9.94347C25.0822 10.0373 25.0707 10.1621 25.0705 10.2208L25.0701 10.3276H25.7261L25.7361 10.0841L25.7462 9.84068L25.7929 9.52463C25.8186 9.35076 25.8603 9.09325 25.8854 8.95234C25.9105 8.81135 25.9539 8.57311 25.9823 8.42272C26.0104 8.27243 26.0551 8.03792 26.0815 7.90169L26.1295 7.65402L26.1311 7.44001L26.1327 7.22605L26.0822 7.12721L26.0315 7.0283L25.9629 6.96537L25.8943 6.90232L25.7817 6.84782L25.6689 6.79312L25.5011 6.7574L25.3331 6.72163L25.1019 6.70493L24.8707 6.68811L24.573 6.70576C24.4091 6.71544 24.1786 6.73455 24.0606 6.74824L23.8462 6.77307L23.7 6.77365L23.5539 6.77421L23.5327 6.87254C23.521 6.92648 23.4885 7.05485 23.4605 7.15777C23.4324 7.26067 23.4121 7.34724 23.4153 7.35021C23.4184 7.35339 23.4966 7.33627 23.5889 7.31257C23.6814 7.28879 23.8776 7.24974 24.0251 7.2257L24.293 7.18202L24.5343 7.17259L24.7755 7.16298L24.931 7.18899L25.0863 7.21512L25.19 7.26401L25.2938 7.313L25.3518 7.3957L25.4099 7.47848L25.4091 7.60892L25.4082 7.73943L25.3775 7.88259L25.3467 8.02574L24.7036 8.02798L24.0606 8.03016L23.8502 8.08539C23.7344 8.11574 23.6062 8.15598 23.5654 8.17487C23.5245 8.19377 23.4835 8.20929 23.4744 8.20929C23.4654 8.20929 23.3965 8.24567 23.3215 8.29044L23.185 8.37149L23.0776 8.47411C23.0184 8.53042 22.9428 8.61502 22.9097 8.66207C22.8765 8.70903 22.8225 8.80703 22.7899 8.88013L22.7305 9.01272L22.7031 9.16197L22.6757 9.31105V9.62422L22.7018 9.75456L22.7279 9.88476L22.7762 9.96988C22.8029 10.0166 22.8517 10.0851 22.8848 10.1221L22.945 10.1891L23.0518 10.2512L23.1587 10.3134L23.2811 10.3464C23.3483 10.3645 23.4508 10.3866 23.5087 10.3954L23.614 10.4112L23.8549 10.4047ZM24.0783 9.92688L23.9353 9.93415L23.8406 9.9111C23.7885 9.89838 23.7095 9.87018 23.6651 9.84826L23.5841 9.80854L23.5399 9.75832C23.5155 9.73062 23.4785 9.67648 23.4574 9.63786L23.4191 9.56752L23.4116 9.40319L23.404 9.239L23.4343 9.13943C23.451 9.08461 23.49 8.9895 23.5213 8.92812L23.5778 8.81641L23.6861 8.71365L23.7944 8.61075L23.9095 8.55776L24.0245 8.50486L24.1674 8.47233L24.3104 8.43985H25.2039L25.2321 8.45104L25.2603 8.46217L25.2366 8.59627C25.2236 8.66998 25.1924 8.8034 25.1673 8.89257C25.1422 8.9819 25.098 9.11302 25.069 9.18429C25.04 9.2553 25.0163 9.31819 25.0163 9.32396C25.0163 9.32973 24.9869 9.38153 24.9509 9.43906L24.8857 9.54389L24.7785 9.64541C24.7197 9.70106 24.665 9.74675 24.657 9.74675C24.649 9.74675 24.613 9.76604 24.5768 9.7895L24.5109 9.83219L24.366 9.87602L24.221 9.91984L24.0783 9.92688ZM29.8951 10.4108L30.0648 10.4128L30.2257 10.3878C30.3142 10.3742 30.4267 10.3521 30.4758 10.3387C30.525 10.3254 30.6135 10.291 30.6724 10.2621L30.7797 10.2096L30.872 10.132L30.9642 10.0543L31.0613 9.93041C31.1147 9.86238 31.1631 9.79513 31.1689 9.78101L31.1792 9.75539L31.1701 9.84083C31.1638 9.89798 31.1555 9.95498 31.1455 10.0117C31.1368 10.0587 31.1244 10.149 31.118 10.2123L31.1061 10.3277H31.8073V10.097L31.8606 9.66138C31.89 9.42171 31.9335 9.10277 31.9571 8.95244C31.9808 8.80209 32.0175 8.58689 32.0386 8.47415C32.0595 8.3614 32.0968 8.15764 32.1213 8.02141C32.1458 7.88524 32.19 7.64689 32.2195 7.49185C32.2491 7.33678 32.2965 7.09081 32.3247 6.94511C32.3529 6.79952 32.3969 6.57271 32.4223 6.44121C32.4478 6.30967 32.4934 6.07894 32.5236 5.92867C32.5552 5.77183 32.588 5.61524 32.6218 5.45881C32.6456 5.35078 32.6651 5.25662 32.6651 5.24959V5.23674H31.9L31.8888 5.34351C31.8826 5.40233 31.8534 5.59629 31.8237 5.7749C31.7887 5.98572 31.753 6.19639 31.7165 6.407C31.6954 6.52846 31.6744 6.64995 31.6539 6.77151L31.6442 6.82845L31.6141 6.81622C31.5974 6.8094 31.5074 6.78551 31.4141 6.76311L31.2443 6.72235L31.0121 6.70508L30.7797 6.6878L30.583 6.70529L30.3865 6.72283L30.2078 6.76604L30.0291 6.8092L29.8593 6.88836L29.6894 6.96755L29.5643 7.05604L29.4394 7.14453L29.3313 7.25531C29.2719 7.31627 29.1861 7.41694 29.1405 7.47925L29.0579 7.59227L28.9607 7.7855C28.9073 7.8918 28.8423 8.03266 28.8163 8.09835C28.7903 8.1642 28.7443 8.30991 28.7141 8.42235L28.6595 8.62676L28.6325 8.89236L28.6056 9.15764L28.6258 9.37122L28.6461 9.58481L28.67 9.66165C28.6832 9.70401 28.7109 9.77939 28.7317 9.82905L28.7693 9.91964L28.8382 10.0086L28.907 10.0977L28.9856 10.1592L29.0641 10.2207L29.1713 10.2716C29.2304 10.2995 29.3292 10.3358 29.3912 10.3519C29.453 10.3681 29.5535 10.3877 29.6146 10.3953C29.6754 10.4025 29.8017 10.4097 29.8951 10.4108ZM30.1998 9.92614L30.0648 9.93285L29.9739 9.91735C29.9237 9.9087 29.8436 9.88553 29.7956 9.86592L29.7087 9.8303L29.6353 9.77289L29.5622 9.71547L29.5078 9.61579L29.4534 9.51615L29.4284 9.40512L29.4037 9.29408L29.4058 9.07195L29.4079 8.8499L29.4366 8.65331L29.4654 8.45698L29.5102 8.32033C29.5349 8.24515 29.5552 8.17419 29.5552 8.1627C29.5554 8.15114 29.5797 8.08977 29.6093 8.02605C29.644 7.95245 29.6806 7.87966 29.7192 7.80778C29.75 7.7514 29.8076 7.66354 29.8471 7.61253C29.8868 7.56152 29.9572 7.48462 30.0038 7.44162C30.0504 7.39877 30.1245 7.34246 30.1685 7.31659L30.2485 7.26957L30.389 7.22309L30.5295 7.17645L30.8244 7.17633H31.1194L31.2891 7.22138C31.3824 7.24621 31.4816 7.27484 31.5094 7.28525L31.56 7.30404L31.55 7.35089C31.5447 7.37664 31.5233 7.49002 31.5028 7.60274C31.4824 7.71554 31.4418 7.93084 31.4128 8.08112C31.3839 8.23142 31.3395 8.45827 31.3141 8.58508C31.2888 8.712 31.2521 8.87342 31.2324 8.94385C31.2124 9.01626 31.1919 9.0885 31.1712 9.16081C31.1569 9.2096 31.1232 9.29419 31.0963 9.34869C31.0692 9.40313 31.0218 9.48237 30.991 9.52468C30.9602 9.56696 30.9081 9.62561 30.8752 9.65482C30.8424 9.68419 30.7713 9.73625 30.7171 9.77055L30.6189 9.83306L30.4767 9.87612L30.3348 9.91922L30.1998 9.92614ZM3.89893 10.3277H4.33305L4.36425 10.1441C4.38132 10.043 4.41483 9.84893 4.43858 9.71277L4.53684 9.149C4.56714 8.97512 4.61263 8.71757 4.63784 8.57664C4.663 8.43573 4.70311 8.2171 4.72676 8.09085C4.75058 7.96447 4.77451 7.85692 4.78002 7.85161L4.79009 7.84204H7.12508L7.13808 7.85443L7.15108 7.86681L7.13082 7.96541C7.11972 8.0197 7.08677 8.1871 7.05771 8.33738C7.02854 8.48773 6.97962 8.74146 6.9488 8.90121C6.91646 9.06931 6.88361 9.23734 6.85016 9.40518C6.82662 9.52265 6.77887 9.76851 6.74414 9.9518C6.70946 10.1351 6.68111 10.2946 6.68122 10.3064L6.68143 10.3277H7.55336L7.57264 10.2209C7.5833 10.1622 7.60038 10.0565 7.61065 9.98604C7.62081 9.91557 7.64559 9.76565 7.66555 9.65294C7.6855 9.54015 7.72533 9.31715 7.75412 9.15743C7.78286 8.99768 7.83112 8.72479 7.86119 8.55099C7.89128 8.37713 7.9359 8.12345 7.96048 7.98727C7.99146 7.81615 8.02379 7.64538 8.05735 7.47474C8.08614 7.32897 8.13414 7.08311 8.16405 6.92799C8.19397 6.77303 8.23865 6.5385 8.26339 6.40696C8.28827 6.27547 8.3335 6.03715 8.36399 5.8774C8.39444 5.71764 8.43303 5.53122 8.44951 5.46308L8.47965 5.33913H7.59679L7.5848 5.42039C7.57821 5.46491 7.55692 5.59006 7.53743 5.69796C7.5179 5.80613 7.48252 5.99822 7.45871 6.12507C7.43489 6.25199 7.39144 6.49404 7.362 6.66328C7.33321 6.82898 7.30548 6.99478 7.27883 7.16078L7.24903 7.35073L6.60105 7.36329L5.95301 7.37581L5.4103 7.36354C5.11177 7.35673 4.86588 7.34981 4.86383 7.3483C4.86174 7.34657 4.87192 7.2802 4.88631 7.20066C4.90537 7.09816 4.92559 6.99587 4.9471 6.89384C4.97451 6.76292 5.0011 6.63199 5.02697 6.50082C5.05196 6.37401 5.0802 6.21644 5.08989 6.15065C5.09941 6.08488 5.11959 5.97537 5.13453 5.90711C5.14951 5.83903 5.17797 5.69557 5.19777 5.58838C5.21752 5.4811 5.23862 5.38114 5.24462 5.36622L5.25542 5.33909H4.37967L4.35174 5.48864C4.33627 5.57089 4.31567 5.68813 4.30598 5.74913C4.29629 5.81024 4.26364 6.00625 4.23346 6.18478C4.20338 6.36334 4.15875 6.62857 4.13451 6.77415L4.03646 7.36354C4.00195 7.56875 3.96561 7.77384 3.92739 7.97853C3.89561 8.14661 3.86323 8.3146 3.83015 8.48252C3.80688 8.59988 3.76261 8.82292 3.73173 8.97794C3.6993 9.14042 3.66592 9.30272 3.63151 9.46487C3.60725 9.57752 3.5805 9.70824 3.57211 9.75524C3.56354 9.80225 3.53587 9.9377 3.51056 10.0564C3.48524 10.1749 3.46453 10.2845 3.46453 10.2999V10.3276L3.89893 10.3277ZM8.70565 10.3277H9.09002L9.10086 10.3006C9.10686 10.2857 9.11174 10.2467 9.11174 10.2141C9.11174 10.1813 9.13593 10.0109 9.16542 9.8353C9.23284 9.43541 9.30194 9.03583 9.37279 8.63641C9.40308 8.46816 9.43508 8.30017 9.46857 8.13241C9.49706 7.9915 9.54078 7.77238 9.56572 7.64553C9.59055 7.51867 9.63962 7.27738 9.67463 7.10923C9.70958 6.9411 9.74259 6.7968 9.74794 6.78858L9.75768 6.77359L9.36893 6.77812L8.98024 6.78275L8.94782 7.00498C8.93004 7.12709 8.89109 7.36927 8.86133 7.54301C8.83158 7.71689 8.78656 7.98218 8.7612 8.13241C8.73064 8.31215 8.698 8.49149 8.66326 8.67055C8.63468 8.81621 8.5909 9.03911 8.56592 9.16602C8.54099 9.29298 8.49619 9.51582 8.46643 9.66143C8.43662 9.80715 8.39669 9.99928 8.37764 10.0885C8.35854 10.1779 8.33805 10.2682 8.3321 10.2892L8.32128 10.3277H8.70565ZM17.6959 10.3277H18.0775L18.0889 10.1734C18.0952 10.0885 18.1168 9.9175 18.1369 9.7932C18.157 9.66904 18.1982 9.42135 18.2283 9.24289C18.2665 9.02225 18.308 8.80205 18.353 8.58249C18.3913 8.39783 18.4347 8.21422 18.4494 8.17462C18.464 8.1349 18.476 8.09195 18.476 8.0791C18.476 8.06618 18.5046 7.99601 18.5397 7.92319C18.5747 7.85035 18.6401 7.73881 18.6849 7.67524L18.7664 7.55978L18.8754 7.46326L18.9844 7.36677L19.1189 7.30539L19.2534 7.24401L19.4589 7.24505L19.6644 7.24615L19.7654 7.27493C19.8209 7.29087 19.8713 7.30387 19.8772 7.30387C19.8829 7.30387 19.8877 7.28566 19.8877 7.26349C19.8877 7.24136 19.9079 7.12881 19.9325 7.01341C19.957 6.89812 19.9771 6.79888 19.9771 6.793C19.9771 6.78702 19.9188 6.76514 19.8475 6.74442C19.7763 6.72376 19.6778 6.70211 19.6287 6.69628L19.5392 6.68571L19.4231 6.70535C19.3593 6.71612 19.2643 6.73996 19.2121 6.75838C19.1598 6.77665 19.0735 6.81831 19.0204 6.85072C18.9673 6.88336 18.8846 6.94672 18.8367 6.99153C18.7887 7.03648 18.7082 7.12709 18.6575 7.19284C18.6182 7.24395 18.579 7.29519 18.5401 7.34656L18.5144 7.38071L18.53 7.31242C18.5385 7.27472 18.5623 7.15171 18.5828 7.03907C18.6033 6.92632 18.6245 6.82054 18.6297 6.80413L18.6392 6.77421H17.9578V6.81539C17.9578 6.83808 17.9375 6.97446 17.9131 7.11855C17.8885 7.2628 17.8479 7.50366 17.823 7.65406C17.798 7.80435 17.7537 8.06581 17.7245 8.2349C17.6934 8.41449 17.6606 8.59387 17.626 8.77294C17.5587 9.11491 17.49 9.45659 17.4197 9.79798C17.3896 9.9437 17.3536 10.1157 17.3397 10.1803C17.3257 10.2447 17.3144 10.3042 17.3144 10.3126V10.3276L17.6959 10.3277ZM26.7531 10.3277H27.1433V10.0994L27.1882 9.81631C27.2131 9.66076 27.2538 9.41408 27.279 9.26852C27.3041 9.12286 27.3354 8.93837 27.3485 8.85842C27.3617 8.77857 27.3965 8.6057 27.426 8.47411C27.4555 8.34255 27.4921 8.20028 27.5077 8.15801C27.5232 8.1158 27.536 8.07139 27.5362 8.05948C27.5364 8.04754 27.5695 7.97078 27.6099 7.88894L27.6836 7.74L27.7808 7.61663L27.878 7.49326L27.9842 7.41684C28.0427 7.37473 28.1367 7.31903 28.1931 7.2929L28.2959 7.24536L28.5192 7.24683L28.7426 7.24833L28.8306 7.27536L28.9186 7.30237L28.9333 7.29351L28.9481 7.28477L28.9489 7.23027C28.9493 7.20024 28.9683 7.08873 28.9914 6.98232L29.0331 6.78889L28.9862 6.77135C28.9411 6.7553 28.8957 6.74054 28.8498 6.7269L28.7605 6.69993L28.5997 6.7004L28.4389 6.70076L28.3078 6.74491L28.1767 6.78894L28.0783 6.84574L27.9798 6.90252L27.8518 7.03064L27.7238 7.15875L27.6551 7.25817C27.6174 7.31278 27.5841 7.35505 27.5811 7.35204C27.5782 7.34911 27.5989 7.23521 27.6269 7.09899C27.6548 6.96271 27.6782 6.83392 27.6786 6.81279L27.6793 6.77438H27.0182V6.78526C27.0182 6.79122 27.0017 6.90086 26.9815 7.02876C26.9614 7.15667 26.9209 7.40352 26.8917 7.57739C26.8565 7.7853 26.8209 7.9931 26.7848 8.20091C26.7534 8.3806 26.7206 8.55993 26.6861 8.73912C26.6613 8.86591 26.6173 9.08883 26.5882 9.23453C26.5592 9.38018 26.5114 9.61469 26.4821 9.7556L26.3959 10.1699L26.363 10.3278L26.7531 10.3277ZM9.46183 6.15891L9.57021 6.15927L9.65648 6.13122L9.74276 6.10311L9.81911 6.02904L9.89544 5.95511L9.93557 5.85641L9.97582 5.75777L9.97721 5.61259L9.9787 5.46746L9.94297 5.41066L9.90726 5.35392L9.84507 5.31721L9.78273 5.28031H9.51407L9.42261 5.31947L9.33121 5.35861L9.27811 5.413L9.22503 5.46746L9.18328 5.56141L9.14159 5.65532L9.13373 5.80171L9.1259 5.94804L9.16466 6.02081L9.20345 6.09347L9.27843 6.12601L9.35324 6.15844L9.46183 6.15891Z" fill="#303030"/>
</svg>
