<svg width="27" height="17" viewBox="0 0 27 17" fill="none" xmlns="http://www.w3.org/2000/svg">
<path d="M13.4583 14.9666C12.081 16.02 10.3437 16.6484 8.45547 16.6484C3.98157 16.6484 0.355469 13.1213 0.355469 8.7695C0.355469 4.41773 3.98157 0.890625 8.45547 0.890625C10.3437 0.890625 12.081 1.51899 13.4583 2.5724C14.8357 1.51945 16.5715 0.890625 18.4554 0.890625C22.9221 0.890625 26.5554 4.42474 26.5554 8.7695C26.5554 13.1143 22.9221 16.6484 18.4554 16.6484C16.5715 16.6484 14.8357 16.0195 13.4583 14.9666ZM18.4554 14.7032C21.8196 14.7032 24.5556 12.041 24.5556 8.7695C24.5556 5.49801 21.8196 2.83583 18.4554 2.83583C17.1198 2.83583 15.8831 3.25562 14.8772 3.96665C15.9295 5.29607 16.5555 6.96175 16.5555 8.7695C16.5555 10.5772 15.9295 12.2429 14.8772 13.5723C15.8831 14.2834 17.1198 14.7032 18.4554 14.7032Z" fill="#303030"/>
</svg>
