<svg width="58" height="12" viewBox="0 0 58 12" fill="none" xmlns="http://www.w3.org/2000/svg">
<path d="M57.1558 0.90952C56.7892 0.940815 56.5091 1.25035 56.5146 1.61831V10.3814C56.509 10.7495 56.7891 11.0591 57.1558 11.0904C57.3441 11.1021 57.5288 11.0354 57.6662 10.9063C57.8036 10.7771 57.8816 10.5969 57.8817 10.4083V1.5917C57.8817 1.40307 57.8037 1.22282 57.6663 1.09364C57.5288 0.964453 57.3441 0.897822 57.1558 0.90952Z" fill="black"/>
<path d="M19.9475 0.981479C19.6061 0.810576 19.1908 0.948807 19.02 1.29021L15.2008 8.9219C15.2002 8.92318 15.1989 8.92398 15.1975 8.92398C15.1961 8.92398 15.1948 8.92318 15.1941 8.9219L11.375 1.29021C11.1991 0.958495 10.7905 0.827853 10.4548 0.995963C10.1191 1.16407 9.97901 1.56944 10.1393 1.90898L14.5433 10.71C14.6604 10.9443 14.9 11.0922 15.1619 11.092C15.1737 11.092 15.1856 11.0906 15.1974 11.09C15.2093 11.0895 15.2212 11.092 15.233 11.092C15.495 11.0922 15.7345 10.9443 15.8517 10.71L20.2562 1.90898C20.4271 1.5676 20.2889 1.15237 19.9475 0.981479Z" fill="black"/>
<path d="M41.945 0.978031C41.5775 1.00965 41.297 1.31983 41.3023 1.68858V8.37733L41.2999 8.38098L41.2957 8.37963L35.7724 1.17637C35.5558 0.894436 35.1598 0.824656 34.8599 1.0156C34.6592 1.14757 34.54 1.37306 34.5439 1.61323V10.3801C34.5385 10.7488 34.819 11.0589 35.1864 11.0905C35.375 11.1022 35.5602 11.0354 35.6979 10.9059C35.8357 10.7765 35.9138 10.5958 35.9138 10.4068V3.62287L35.9162 3.61945L35.9203 3.62057L41.4439 10.8236C41.664 11.1105 42.069 11.1772 42.3695 10.976C42.5625 10.8426 42.6762 10.6217 42.6725 10.3871V1.66175C42.6725 1.47281 42.5944 1.29216 42.4567 1.16267C42.3188 1.03313 42.1337 0.966336 41.945 0.978031Z" fill="black"/>
<path d="M53.7809 0.908285H45.5034C45.1353 0.902697 44.8256 1.18275 44.7943 1.54951C44.7827 1.73773 44.8494 1.92239 44.9786 2.05979C45.1077 2.19719 45.2879 2.27513 45.4765 2.27517L48.9416 2.27517C48.9436 2.27522 48.9453 2.27686 48.9454 2.27889L48.9453 10.3815C48.9397 10.7495 49.2197 11.0591 49.5864 11.0905C49.7746 11.1021 49.9592 11.0355 50.0966 10.9063C50.2341 10.7771 50.312 10.5969 50.312 10.4083V2.27889L50.3155 2.27517L53.7543 2.27517C54.1224 2.28064 54.4319 2.00061 54.4631 1.63395C54.4747 1.4457 54.4081 1.26102 54.2789 1.12362C54.1497 0.986215 53.9695 0.90829 53.7809 0.908285Z" fill="black"/>
<path d="M6.29108 1.28987C6.16798 1.04401 5.91084 0.894521 5.63628 0.909193C5.3622 0.895142 5.10576 1.04453 4.98279 1.28987L0.578017 10.0912C0.407148 10.4326 0.545371 10.8478 0.886746 11.0187C1.22812 11.1896 1.64338 11.0514 1.81425 10.71L2.89627 8.54801C2.89687 8.54673 2.89815 8.54592 2.89956 8.54593H8.37432C8.37572 8.54592 8.37701 8.54673 8.3776 8.54801L9.45963 10.71C9.6305 11.0513 10.0457 11.1895 10.3871 11.0187C10.7284 10.8478 10.8666 10.4326 10.6958 10.0912L6.29108 1.28987ZM3.41878 7.50376L5.63365 3.07818C5.63424 3.07689 5.63553 3.07607 5.63694 3.07607C5.63835 3.07607 5.63964 3.07689 5.64022 3.07818L7.85521 7.50376C7.85578 7.50489 7.85573 7.50624 7.85505 7.50732C7.85438 7.5084 7.85319 7.50904 7.85192 7.50902H3.42207C3.4208 7.50904 3.41961 7.5084 3.41893 7.50732C3.41826 7.50624 3.4182 7.50489 3.41878 7.50376Z" fill="black"/>
<path d="M32.4657 10.156C32.4575 10.1328 32.448 10.1101 32.4371 10.088L28.381 1.8924C28.1726 1.41077 27.7387 1.06403 27.223 0.96705C26.7072 0.870071 26.177 1.03551 25.8079 1.40855L24.8113 3.30605L22.4196 8.34383C22.0247 9.10498 21.4019 9.60897 20.6601 9.78541L24.3223 2.4114C24.3297 2.3964 24.3364 2.38118 24.3427 2.36573C24.4025 2.23117 24.5361 2.14453 24.6834 2.14473C24.6972 2.14496 24.7111 2.14599 24.7248 2.1478L25.3271 1.07639C24.9412 0.904319 24.5025 0.894005 24.1089 1.04775C23.7154 1.2015 23.3998 1.5065 23.2327 1.89459L19.1724 10.0714C19.1661 10.0831 19.1603 10.095 19.1549 10.1074C19.0646 10.3071 19.0783 10.5384 19.1913 10.7262C19.3044 10.914 19.5024 11.0342 19.7212 11.0479C19.8317 11.0571 19.9435 11.0617 20.054 11.0617C21.5076 11.0617 22.7942 10.2494 23.4952 8.88846C23.4982 8.88266 23.5012 8.87685 23.5039 8.87083L25.786 4.06336L25.7867 4.06182L25.8069 4.01933L26.475 2.61587L26.474 2.61379L26.5745 2.40198C26.5788 2.39308 26.5827 2.38413 26.5865 2.37515C26.6443 2.23566 26.7804 2.14472 26.9314 2.14472C27.0825 2.14472 27.2186 2.23566 27.2764 2.37515C27.2814 2.38731 27.2874 2.39936 27.2927 2.41118L30.9421 9.78508C30.2055 9.6081 29.5858 9.10443 29.1915 8.34405L26.7897 3.27889L26.1266 4.69341L28.1069 8.86995C28.1097 8.87587 28.1127 8.88189 28.1157 8.8878C28.8275 10.269 30.0778 11.0611 31.5469 11.0611C31.6629 11.0611 31.7803 11.0559 31.8959 11.0458C31.969 11.0396 32.0404 11.0199 32.1065 10.9878C32.4277 10.8493 32.5854 10.4848 32.4657 10.156Z" fill="black"/>
</svg>
