<svg width="39" height="20" viewBox="0 0 39 20" fill="none" xmlns="http://www.w3.org/2000/svg">
<path d="M0.176758 8.55771V0.989224H2.00444V6.96434H4.93342V8.55771H0.176758ZM10.9788 5.95677V6.16766V6.37855H7.11258C7.13601 6.51914 7.18288 6.65973 7.25317 6.77689C7.32347 6.89405 7.41719 7.01121 7.53435 7.0815C7.65151 7.17523 7.7921 7.24552 7.9327 7.29239C8.07329 7.33925 8.23731 7.36268 8.3779 7.36268C8.65908 7.36268 8.8934 7.31582 9.08086 7.19866C9.26831 7.10493 9.43233 6.96434 9.54949 6.80032L10.7679 7.57357C10.5102 7.94848 10.1822 8.20623 9.78381 8.41712C9.38547 8.60457 8.8934 8.72173 8.35447 8.72173C7.95613 8.72173 7.58122 8.65143 7.22974 8.53428C6.87826 8.41712 6.57365 8.22966 6.29247 7.99534C6.03472 7.76102 5.82383 7.45641 5.65981 7.10493C5.49578 6.75346 5.42549 6.35511 5.42549 5.90991C5.42549 5.4647 5.49578 5.0898 5.65981 4.73832C5.8004 4.38684 6.01128 4.08223 6.26903 3.84791C6.52678 3.61359 6.8314 3.4027 7.18288 3.28554C7.53435 3.14495 7.90926 3.07466 8.3076 3.07466C8.70595 3.07466 9.05742 3.14495 9.38547 3.26211C9.71351 3.4027 9.9947 3.59016 10.229 3.82448C10.4633 4.08223 10.6508 4.38684 10.7679 4.73832C10.9085 5.11323 10.9788 5.51157 10.9788 5.95677ZM9.36204 5.30068C9.36204 5.0195 9.26831 4.78518 9.10429 4.5743C8.94026 4.36341 8.65908 4.26968 8.3076 4.26968C8.14358 4.26968 7.97956 4.29311 7.83897 4.33998C7.69838 4.38684 7.58122 4.45714 7.46406 4.55086C7.3469 4.64459 7.2766 4.76175 7.20631 4.87891C7.13601 4.99607 7.11258 5.13666 7.08915 5.27725H9.36204V5.30068ZM13.7907 4.55086V6.58943C13.7907 6.84718 13.8375 7.03464 13.9312 7.1518C14.025 7.26896 14.189 7.33925 14.4467 7.33925C14.5405 7.33925 14.6342 7.33925 14.7279 7.31582C14.8217 7.29239 14.9154 7.26896 14.9622 7.24552L14.9857 8.53428C14.8685 8.58114 14.7045 8.60457 14.517 8.65143C14.3296 8.67487 14.1421 8.6983 13.9547 8.6983C13.6032 8.6983 13.2986 8.65143 13.0643 8.55771C12.8299 8.46398 12.6191 8.34682 12.4785 8.1828C12.3379 8.01877 12.2207 7.80789 12.1739 7.57357C12.127 7.33925 12.0801 7.0815 12.0801 6.80032V4.55086H11.2132V3.23868H12.0567V1.83277H13.7907V3.23868H15.0325V4.55086H13.7907ZM16.6493 0.848633C16.1338 0.848633 15.7121 1.22354 15.7121 1.71561C15.7121 2.23111 16.0635 2.55916 16.579 2.55916C16.6259 2.55916 16.6728 2.55916 16.6962 2.53573C16.6025 2.91063 16.251 3.19182 15.8995 3.23868H15.8292V4.05879H15.923C16.3447 4.01193 16.7431 3.82448 17.0477 3.54329C17.446 3.16838 17.6569 2.60602 17.6569 1.94993C17.6569 1.31727 17.2351 0.848633 16.6493 0.848633ZM20.703 4.80861C20.5625 4.66802 20.3984 4.55086 20.211 4.45714C20.0235 4.36341 19.8126 4.31654 19.6017 4.31654C19.4377 4.31654 19.2971 4.33998 19.1565 4.41027C19.016 4.48057 18.9457 4.57429 18.9457 4.73832C18.9457 4.87891 19.016 4.99607 19.18 5.06636C19.344 5.13666 19.5783 5.20695 19.9298 5.27725C20.1407 5.32411 20.3281 5.37098 20.539 5.4647C20.7499 5.55843 20.9139 5.65216 21.078 5.76932C21.242 5.88648 21.3826 6.0505 21.4763 6.23796C21.57 6.42541 21.6169 6.6363 21.6169 6.89405C21.6169 7.22209 21.5466 7.50327 21.406 7.73759C21.2654 7.97191 21.1014 8.15937 20.8671 8.29996C20.6562 8.44055 20.3984 8.53428 20.1407 8.60457C19.8595 8.67487 19.6017 8.6983 19.3206 8.6983C18.8754 8.6983 18.4536 8.628 18.0552 8.48741C17.6335 8.34682 17.282 8.13593 17.0242 7.87818L18.0084 6.84718C18.1724 7.01121 18.3599 7.1518 18.5942 7.26896C18.8285 7.38612 19.0628 7.43298 19.3206 7.43298C19.4612 7.43298 19.6017 7.40955 19.7423 7.33925C19.8829 7.26896 19.9532 7.1518 19.9532 6.98777C19.9532 6.82375 19.8595 6.70659 19.6955 6.61286C19.5315 6.54257 19.2503 6.44884 18.8988 6.37855C18.7113 6.33168 18.5239 6.28482 18.3364 6.21452C18.149 6.14423 17.985 6.0505 17.8444 5.93334C17.7038 5.81618 17.5866 5.65216 17.4929 5.48814C17.3992 5.30068 17.3523 5.0898 17.3523 4.85548C17.3523 4.52743 17.4226 4.26968 17.5632 4.03536C17.7038 3.80104 17.8678 3.63702 18.0787 3.49643C18.2896 3.35584 18.5239 3.23868 18.7816 3.19182C19.0394 3.12152 19.2971 3.09809 19.5549 3.09809C19.9532 3.09809 20.3516 3.16839 20.7265 3.28554C21.1014 3.4027 21.4294 3.59016 21.6872 3.84791L20.703 4.80861ZM0.176758 17.3212V9.75273H5.26147V11.2992H1.93415V12.7286H5.07401V14.1813H1.93415V15.7513H5.44892V17.3212H0.176758ZM10.065 17.3212V14.4157C10.065 14.2751 10.0416 14.1345 10.0181 13.9939C9.9947 13.8533 9.94783 13.7361 9.90097 13.6424C9.85411 13.5487 9.76038 13.455 9.66665 13.4081C9.57292 13.3378 9.43233 13.3144 9.26831 13.3144C9.10429 13.3144 8.9637 13.3378 8.84654 13.4081C8.72938 13.4784 8.63565 13.5487 8.54192 13.6658C8.47163 13.783 8.40133 13.9002 8.35447 14.0408C8.3076 14.1813 8.28417 14.3219 8.28417 14.4625V17.3446H6.52679V12.0256H8.21388V12.752H8.23731C8.3076 12.6348 8.3779 12.5177 8.49506 12.424C8.58879 12.3068 8.72938 12.2131 8.84654 12.1428C8.98713 12.0725 9.12772 12.0022 9.29174 11.9553C9.45576 11.9085 9.61979 11.885 9.80724 11.885C10.1587 11.885 10.4633 11.9553 10.7211 12.0725C10.9788 12.1896 11.1663 12.3771 11.3303 12.5646C11.4943 12.7754 11.5881 13.0098 11.6584 13.2675C11.7287 13.5253 11.7521 13.783 11.7521 14.0642V17.3446H10.065V17.3212ZM16.3447 13.7127C16.251 13.5956 16.1104 13.4784 15.9464 13.4081C15.7824 13.3378 15.5949 13.2909 15.4309 13.2909C15.2434 13.2909 15.0794 13.3378 14.9388 13.4081C14.7982 13.4784 14.6576 13.5721 14.5639 13.7127C14.4702 13.8533 14.3764 13.9705 14.3062 14.1345C14.2359 14.2985 14.2124 14.4625 14.2124 14.65C14.2124 14.8374 14.2359 15.0015 14.3062 15.1655C14.353 15.3295 14.4467 15.4701 14.5639 15.5873C14.6811 15.7044 14.7982 15.8216 14.9622 15.8919C15.1263 15.9622 15.2903 16.009 15.4777 16.009C15.6652 16.009 15.8292 15.9856 16.0167 15.9153C16.1807 15.845 16.3213 15.7513 16.4385 15.6107L17.3992 16.8057C17.1883 17.0166 16.8837 17.1806 16.5556 17.2978C16.2041 17.4149 15.8292 17.4852 15.4543 17.4852C15.0325 17.4852 14.6342 17.4149 14.2827 17.2978C13.9078 17.1806 13.6032 16.9932 13.322 16.7354C13.0643 16.5011 12.8534 16.1965 12.6894 15.845C12.5253 15.4935 12.455 15.0952 12.455 14.65C12.455 14.2048 12.5253 13.8299 12.6894 13.4784C12.8534 13.1269 13.0643 12.8223 13.322 12.588C13.5798 12.3537 13.9078 12.1428 14.2827 12.0256C14.6576 11.885 15.0325 11.8382 15.4543 11.8382C15.6418 11.8382 15.8292 11.8616 16.0167 11.885C16.2041 11.9319 16.3916 11.9788 16.5556 12.0256C16.7196 12.0959 16.8837 12.1662 17.0477 12.2599C17.1883 12.3537 17.3289 12.4474 17.4226 12.5646L16.3447 13.7127ZM21.4529 13.455C21.3826 13.4315 21.2888 13.4081 21.2185 13.4081H21.0077C20.7733 13.4081 20.5859 13.455 20.4219 13.5253C20.2578 13.619 20.1407 13.7127 20.047 13.8299C19.9532 13.947 19.8829 14.0876 19.8361 14.2282C19.7892 14.3688 19.7658 14.486 19.7658 14.6031V17.3212H18.0084V12.0022H19.6955V12.7754H19.7189C19.8595 12.4943 20.047 12.2834 20.3047 12.1193C20.5625 11.9553 20.8436 11.8616 21.1717 11.8616H21.3826C21.4529 11.8616 21.4997 11.885 21.5466 11.885L21.4529 13.455ZM25.5769 18.1179C25.4597 18.3991 25.3425 18.6334 25.2254 18.8677C25.0848 19.0786 24.9442 19.2661 24.7568 19.4301C24.5693 19.5941 24.3584 19.6878 24.1241 19.7816C23.8898 19.8519 23.5852 19.8987 23.2571 19.8987C23.0931 19.8987 22.9291 19.8987 22.7416 19.8753C22.5776 19.8519 22.4136 19.8284 22.2964 19.7816L22.4839 18.3054C22.5776 18.3288 22.6713 18.3522 22.765 18.3756C22.8588 18.3991 22.9525 18.3991 23.0462 18.3991C23.3274 18.3991 23.5149 18.3288 23.632 18.2116C23.7492 18.0945 23.8663 17.907 23.9366 17.6727L24.1007 17.2275L21.8746 12.0022H23.8195L25.0145 15.4232H25.0379L26.0924 12.0022H27.9435L25.5769 18.1179ZM34.3404 14.65C34.3404 15.0249 34.2935 15.3764 34.1763 15.7278C34.0592 16.0793 33.8952 16.3605 33.6843 16.6417C33.4734 16.8994 33.1922 17.1103 32.8876 17.2743C32.583 17.4384 32.2081 17.5087 31.8097 17.5087C31.4817 17.5087 31.1771 17.4384 30.8725 17.3212C30.5913 17.1806 30.357 17.0166 30.1929 16.7823H30.1695V19.9456H28.4121V12.0725H30.0758V12.7286H30.0992C30.2632 12.5177 30.4976 12.3302 30.7787 12.1662C31.0599 12.0022 31.4114 11.9319 31.8097 11.9319C32.1846 11.9319 32.5361 12.0022 32.8642 12.1662C33.1688 12.3068 33.45 12.5177 33.6609 12.7754C33.8717 13.0332 34.0358 13.3378 34.1529 13.6658C34.2701 13.9236 34.3404 14.2751 34.3404 14.65ZM32.6298 14.65C32.6298 14.486 32.6064 14.3219 32.5596 14.1579C32.5127 13.9939 32.419 13.8533 32.3252 13.7361C32.2315 13.619 32.0909 13.5018 31.9269 13.4315C31.7629 13.3612 31.5988 13.3144 31.388 13.3144C31.1771 13.3144 31.0131 13.3612 30.849 13.4315C30.685 13.5018 30.5678 13.619 30.4507 13.7361C30.3335 13.8533 30.2632 14.0173 30.1929 14.1813C30.1226 14.3454 30.0992 14.5094 30.0992 14.6734C30.0992 14.8374 30.1226 15.0015 30.1929 15.1655C30.2632 15.3295 30.3335 15.4701 30.4507 15.6107C30.5678 15.7278 30.685 15.845 30.849 15.9153C31.0131 15.9856 31.1771 16.0325 31.388 16.0325C31.5988 16.0325 31.7863 15.9856 31.9269 15.9153C32.0909 15.845 32.2081 15.7278 32.3252 15.6107C32.419 15.4935 32.5127 15.3295 32.5596 15.1655C32.6064 14.978 32.6298 14.814 32.6298 14.65ZM37.1288 13.3144V15.3529C37.1288 15.6107 37.1756 15.7981 37.2694 15.9153C37.3631 16.0325 37.5271 16.1028 37.7849 16.1028C37.8786 16.1028 37.9723 16.1028 38.066 16.0793C38.1598 16.0559 38.2535 16.0325 38.3004 16.009L38.3238 17.2978C38.2066 17.3446 38.0426 17.3681 37.8551 17.4149C37.6677 17.4384 37.4802 17.4618 37.2928 17.4618C36.9413 17.4618 36.6367 17.4149 36.4024 17.3212C36.1681 17.2275 35.9572 17.1103 35.8166 16.9463C35.676 16.7823 35.5588 16.5714 35.512 16.3371C35.4651 16.1028 35.4182 15.845 35.4182 15.5638V13.3144H34.5747V12.0022H35.4182V10.5963H37.1288V12.0022H38.3706V13.3144H37.1288Z" fill="#003A70"/>
</svg>
