<svg width="54" height="20" viewBox="0 0 54 20" fill="none" xmlns="http://www.w3.org/2000/svg">
<g clip-path="url(#clip0_30761_183)">
<path d="M39.1895 7.61582H37.2894V14.1C37.2886 14.2222 37.1893 14.3211 37.0667 14.322H35.6034C35.4808 14.3211 35.3816 14.2222 35.3807 14.1V7.61582H33.4667C33.4088 7.61817 33.3524 7.59697 33.3104 7.55708C33.2684 7.51718 33.2444 7.46201 33.244 7.40419V6.25584C33.2444 6.19802 33.2684 6.14284 33.3104 6.10295C33.3524 6.06305 33.4088 6.04186 33.4667 6.04421H39.186C39.3094 6.03831 39.4143 6.13288 39.4209 6.25584V7.40419C39.4143 7.52574 39.3115 7.61977 39.1895 7.61582Z" fill="#FF3366"/>
<path d="M45.2826 14.278C44.5335 14.3849 43.7773 14.4336 43.0207 14.4238C41.5782 14.4238 40.3046 14.056 40.3046 12.0282V8.32814C40.3046 6.30032 41.5904 5.94471 43.0311 5.94471C43.7819 5.93446 44.5324 5.98259 45.2756 6.08869C45.4322 6.11124 45.4984 6.16675 45.4984 6.31072V7.35153C45.4975 7.47376 45.3983 7.57262 45.2756 7.57356H42.9267C42.4047 7.57356 42.2116 7.74703 42.2116 8.33161V9.34466H45.1939C45.3165 9.34559 45.4156 9.44446 45.4166 9.56669V10.6248C45.4157 10.7471 45.3165 10.8459 45.1939 10.8469H42.2116V12.0282C42.2116 12.6076 42.4012 12.7862 42.9267 12.7862H45.2826C45.4052 12.7872 45.5044 12.886 45.5053 13.0083V14.0491C45.5071 14.1878 45.4392 14.2555 45.2826 14.278Z" fill="#FF3366"/>
<path d="M53.7147 14.3221H51.9382C51.8143 14.3313 51.698 14.2618 51.6476 14.1486L50.106 11.7201L48.714 14.1035C48.6357 14.2371 48.5574 14.3255 48.4339 14.3255H46.7844C46.7412 14.3333 46.6968 14.3215 46.6632 14.2933C46.6296 14.2652 46.6102 14.2236 46.6104 14.1798C46.6127 14.1526 46.6204 14.126 46.633 14.1018L49.0568 10.0791L46.6104 6.25588C46.5978 6.23534 46.59 6.2122 46.5878 6.18822C46.5961 6.1004 46.6736 6.03549 46.7618 6.04251H48.5609C48.6844 6.04251 48.7732 6.15353 48.841 6.25414L50.2713 8.50921L51.6632 6.25414C51.7137 6.1401 51.8196 6.06008 51.9434 6.04251H53.5981C53.6863 6.03549 53.7638 6.1004 53.7721 6.18822C53.7698 6.2122 53.7621 6.23534 53.7495 6.25588L51.3135 10.1016L53.8486 14.0914C53.8682 14.1253 53.8796 14.1633 53.8817 14.2024C53.8608 14.2787 53.8034 14.3221 53.7147 14.3221Z" fill="#FF3366"/>
<path d="M30.568 6.06646C30.4845 6.06461 30.4115 6.12212 30.394 6.2035L28.7706 12.1916C28.7479 12.3147 28.7149 12.365 28.614 12.365C28.5131 12.365 28.48 12.3199 28.4574 12.1916L26.8392 6.2035C26.8217 6.12212 26.7487 6.06461 26.6652 6.06646H25.0679C25.0143 6.06514 24.9631 6.08856 24.9291 6.12991C24.8951 6.17126 24.8821 6.22593 24.8939 6.27809C24.8939 6.27809 26.8757 13.1422 26.8966 13.2168C27.1611 14.0355 27.8031 14.431 28.6192 14.431C29.4021 14.459 30.1072 13.962 30.3418 13.2168C30.3731 13.1231 32.3114 6.27809 32.3114 6.27809C32.3226 6.22619 32.3093 6.17203 32.2754 6.13111C32.2415 6.09019 32.1906 6.06701 32.1374 6.06819L30.568 6.06646Z" fill="#FF3366"/>
<path d="M21.5149 0.500071H4.85995C4.25728 0.505564 3.70094 0.823439 3.39154 1.33908C3.08213 1.85472 3.06429 2.49375 3.34444 3.02575L5.01133 6.18978H1.99075C1.60485 6.18278 1.24405 6.3799 1.04232 6.70795C0.840597 7.03601 0.828076 7.44599 1.00941 7.78567L6.3685 17.8814C6.56081 18.244 6.93846 18.4708 7.34984 18.4708C7.76122 18.4708 8.13887 18.244 8.33118 17.8814L9.78579 15.1459L11.6128 18.5909C11.9098 19.1502 12.4926 19.5 13.1274 19.5C13.7622 19.5 14.345 19.1502 14.642 18.5909L22.9939 2.93554C23.2704 2.42025 23.2538 1.79775 22.9502 1.29782C22.6466 0.797891 22.1011 0.494666 21.5149 0.500071ZM14.0731 7.11436L10.4191 13.9455C10.2936 14.1814 10.0476 14.3289 9.7797 14.3289C9.5118 14.3289 9.2658 14.1814 9.14026 13.9455L5.53332 7.18027C5.42203 6.97208 5.42853 6.72093 5.55043 6.51873C5.67234 6.31653 5.89175 6.19296 6.12839 6.19325H13.5093C13.7317 6.18984 13.9393 6.30393 14.0552 6.49322C14.171 6.6825 14.1778 6.91875 14.0731 7.11436Z" fill="#FF3366"/>
</g>
<defs>
<clipPath id="clip0_30761_183">
<rect width="53" height="19" fill="white" transform="translate(0.881714 0.5)"/>
</clipPath>
</defs>
</svg>
