<svg width="27" height="26" viewBox="0 0 27 26" fill="none" xmlns="http://www.w3.org/2000/svg">
<path d="M4.11393 20.3651C3.75465 20.2223 3.43391 19.9972 3.17755 19.7079C2.92118 19.4185 2.73635 19.073 2.63793 18.6991C2.20484 16.754 2.0114 14.7632 2.06193 12.7711C2.0117 10.7814 2.20479 8.79297 2.63693 6.8501C2.73342 6.47679 2.91614 6.13132 3.1704 5.84145C3.42466 5.55158 3.74338 5.32541 4.10093 5.1811C7.48793 3.8871 12.8349 3.8501 13.4339 3.8501H13.4719C14.0999 3.8501 19.4469 3.8871 22.8219 5.1761C23.181 5.31904 23.5015 5.54425 23.7577 5.8336C24.0138 6.12295 24.1985 6.46837 24.2969 6.8421C24.73 8.78721 24.9234 10.778 24.8729 12.7701C24.9234 14.7612 24.7303 16.7509 24.2979 18.6951C24.2008 19.0676 24.0178 19.4123 23.7636 19.7014C23.5094 19.9905 23.191 20.2161 22.8339 20.3601C19.4469 21.6541 14.0999 21.6911 13.5009 21.6911C12.8359 21.6921 7.48793 21.6501 4.11393 20.3651ZM4.69493 6.6991C4.57751 6.74801 4.47305 6.8235 4.38976 6.91963C4.30647 7.01576 4.24662 7.12991 4.21493 7.2531C3.81696 9.06435 3.641 10.9173 3.69093 12.7711C3.64097 14.6259 3.81727 16.4799 4.21593 18.2921C4.24841 18.417 4.30975 18.5326 4.39503 18.6295C4.48031 18.7264 4.58714 18.802 4.70693 18.8501C7.84993 20.0501 13.2069 20.0651 13.4339 20.0651C13.7269 20.0651 19.0849 20.0511 22.2399 18.8461C22.3573 18.7972 22.4618 18.7217 22.5451 18.6256C22.6284 18.5294 22.6882 18.4153 22.7199 18.2921C23.118 16.4805 23.2939 14.6272 23.2439 12.7731C23.294 10.9176 23.1177 9.06292 22.7189 7.2501C22.686 7.12574 22.6244 7.0108 22.5392 6.91445C22.4539 6.81809 22.3473 6.74298 22.2279 6.6951C19.0849 5.4951 13.7279 5.4801 13.5009 5.4801H13.4339C13.2079 5.4791 7.84993 5.4931 4.69493 6.6991ZM11.4539 16.7501C11.324 16.6805 11.2155 16.5769 11.1397 16.4505C11.064 16.3241 11.024 16.1795 11.0239 16.0321V9.5121C11.0237 9.36463 11.0636 9.21988 11.1393 9.09331C11.215 8.96674 11.3236 8.86312 11.4536 8.79349C11.5836 8.72387 11.7301 8.69088 11.8774 8.69803C12.0247 8.70518 12.1673 8.75221 12.2899 8.8341L17.1779 12.0931C17.2895 12.1674 17.381 12.2681 17.4443 12.3863C17.5076 12.5045 17.5407 12.6365 17.5407 12.7706C17.5407 12.9047 17.5076 13.0367 17.4443 13.1549C17.381 13.2731 17.2895 13.3738 17.1779 13.4481L12.2899 16.7071C12.1672 16.7887 12.0247 16.8356 11.8775 16.8426C11.7302 16.8497 11.5839 16.8166 11.4539 16.7471V16.7501ZM12.6539 14.5101L15.2539 12.7731L12.6539 11.0371V14.5101Z" fill="#005CFF"/>
</svg>
